<svg width="30" height="30" viewBox="0 0 30 30" fill="none" xmlns="http://www.w3.org/2000/svg">
<g id="box-arrow-in-down">
<g id="box-arrow-bg">
<path id="box-arrow-bg (Stroke)" fill-rule="evenodd" clip-rule="evenodd" d="M6.5625 11.25C6.04473 11.25 5.625 11.6697 5.625 12.1875V27.1875C5.625 27.7053 6.04473 28.125 6.5625 28.125H23.4375C23.9553 28.125 24.375 27.7053 24.375 27.1875V12.1875C24.375 11.6697 23.9553 11.25 23.4375 11.25H19.6875C19.1697 11.25 18.75 10.8303 18.75 10.3125C18.75 9.79473 19.1697 9.375 19.6875 9.375H23.4375C24.9908 9.375 26.25 10.6342 26.25 12.1875V27.1875C26.25 28.7408 24.9908 30 23.4375 30H6.5625C5.0092 30 3.75 28.7408 3.75 27.1875V12.1875C3.75 10.6342 5.0092 9.375 6.5625 9.375H10.3125C10.8303 9.375 11.25 9.79473 11.25 10.3125C11.25 10.8303 10.8303 11.25 10.3125 11.25H6.5625Z" fill="white"/>
</g>
<g id="box-arrow">
<path id="Vector 285 (Stroke)" fill-rule="evenodd" clip-rule="evenodd" d="M14.3371 22.2254C14.7032 22.5915 15.2968 22.5915 15.6629 22.2254L21.2879 16.6004C21.654 16.2343 21.654 15.6407 21.2879 15.2746C20.9218 14.9085 20.3282 14.9085 19.9621 15.2746L15.9375 19.2992V2.8125C15.9375 2.29473 15.5178 1.875 15 1.875C14.4822 1.875 14.0625 2.29473 14.0625 2.8125V19.2992L10.0379 15.2746C9.6718 14.9085 9.0782 14.9085 8.71209 15.2746C8.34597 15.6407 8.34597 16.2343 8.71209 16.6004L14.3371 22.2254Z" fill="white"/>
</g>
</g>
</svg>
