<svg width="30" height="30" viewBox="0 0 30 30" fill="none" xmlns="http://www.w3.org/2000/svg">
<g id="box-arrow-up-right">
<g id="box-arrow-bg-45">
<path id="box-arrow-bg-45 (Stroke)" fill-rule="evenodd" clip-rule="evenodd" d="M16.1932 6.5625C16.1932 6.04473 15.7734 5.625 15.2557 5.625H2.8125C1.2592 5.625 0 6.8842 0 8.4375V27.1875C0 28.7408 1.2592 30 2.8125 30H21.5625C23.1158 30 24.375 28.7408 24.375 27.1875V14.7443C24.375 14.2266 23.9553 13.8068 23.4375 13.8068C22.9197 13.8068 22.5 14.2266 22.5 14.7443V27.1875C22.5 27.7053 22.0803 28.125 21.5625 28.125H2.8125C2.29473 28.125 1.875 27.7053 1.875 27.1875V8.4375C1.875 7.91973 2.29473 7.5 2.8125 7.5H15.2557C15.7734 7.5 16.1932 7.08027 16.1932 6.5625Z" fill="white"/>
</g>
<g id="box-arrow-45">
<path id="box-arrow-45 (Stroke)" fill-rule="evenodd" clip-rule="evenodd" d="M30 0.9375C30 0.419733 29.5803 0 29.0625 0H19.6875C19.1697 0 18.75 0.419733 18.75 0.9375C18.75 1.45527 19.1697 1.875 19.6875 1.875H26.7992L11.5246 17.1496C11.1585 17.5157 11.1585 18.1093 11.5246 18.4754C11.8907 18.8415 12.4843 18.8415 12.8504 18.4754L28.125 3.20083V10.3125C28.125 10.8303 28.5447 11.25 29.0625 11.25C29.5803 11.25 30 10.8303 30 10.3125V0.9375Z" fill="white"/>
</g>
</g>
</svg>
