<svg width="30" height="30" viewBox="0 0 30 30" fill="none" xmlns="http://www.w3.org/2000/svg">
<g id="eject">
<g id="Vector">
<path d="M16.3679 28.0367C15.6271 28.8268 14.3729 28.8268 13.6321 28.0367L1.73359 15.3449C0.610932 14.1474 1.46002 12.1875 3.10147 12.1875L26.8985 12.1875C28.54 12.1875 29.3891 14.1474 28.2664 15.3449L16.3679 28.0367ZM3.10147 14.0625L15 26.7543L26.8985 14.0625L3.10147 14.0625Z" fill="white"/>
<path d="M29.0625 8.4375C29.0625 9.47304 28.223 10.3125 27.1875 10.3125L2.8125 10.3125C1.77697 10.3125 0.9375 9.47304 0.9375 8.4375V6.5625C0.9375 5.52697 1.77697 4.6875 2.8125 4.6875L27.1875 4.6875C28.223 4.6875 29.0625 5.52697 29.0625 6.5625V8.4375ZM2.8125 8.4375L27.1875 8.4375V6.5625L2.8125 6.5625V8.4375Z" fill="white"/>
</g>
</g>
</svg>
